<?xml version="1.0" encoding="UTF-8"?>
<svg id="_圖層_1" data-name="圖層_1" xmlns="http://www.w3.org/2000/svg" version="1.1" viewBox="0 0 1385 693">
  <!-- Generator: Adobe Illustrator 29.7.1, SVG Export Plug-In . SVG Version: 2.1.1 Build 8)  -->
  <g id="_圖層_5" data-name="圖層_5">
    <rect x="190.5" y="22.6094971" width="80" height="520" pointer-events="all" fill="#f5f5f5" stroke="#666" stroke-dasharray="6 6" stroke-width="2"/>
    <text transform="translate(224.8232727 364.2091446) rotate(-90)" fill="#333" font-family="SourceHanSansTC-Medium-B5pc-H, &apos;Source Han Sans TC&apos;" font-size="20" font-weight="500" isolation="isolate"><tspan x="0" y="0">基隆路三段 155 巷</tspan><tspan x="-81.6977539" y="24">Lane 155, Section 3, Keelung Road</tspan></text>
    <rect x="290.5" y="60.5" width="120" height="400" rx="10" ry="10" pointer-events="all" fill="#ffe6cc" stroke="#d79b00" stroke-width="2"/>
    <g isolation="isolate">
      <path d="M321.7099609,323.0400391v-10.7397461h2.5800781v10.7397461h-2.5800781ZM321.7700195,310.7402344v-14.6098633h2.6401367v14.6098633h-2.6401367ZM322.8798828,301.5v-2.699707h25.1401367v2.699707h-25.1401367ZM322.9702148,308.4301758v-2.6699219h10.3496094c1.2602539,0,2.5551758.050293,3.8852539.1499023,1.3300781.1005859,2.6503906.2954102,3.9599609.5849609,1.3100586.2900391,2.5649414.715332,3.7651367,1.2749023,1.199707.5605469,2.2895508,1.3105469,3.2700195,2.25-.1801758.1606445-.3706055.3652344-.5703125.6152344-.2001953.2504883-.4003906.5151367-.6000977.7949219-.199707.2802734-.3598633.5302734-.4799805.75-.8798828-.8398438-1.8642578-1.5097656-2.9545898-2.0097656-1.0898438-.5-2.2250977-.875-3.4052734-1.125-1.1796875-.25-2.3549805-.4150391-3.5249023-.4951172-1.1699219-.0795898-2.284668-.1201172-3.3452148-.1201172h-10.3496094ZM322.9702148,319.2900391l.5698242-2.6098633c1.8798828.3598633,3.7402344.8100586,5.5800781,1.3500977,1.840332.5400391,3.5600586,1.175293,5.159668,1.9047852,1.6005859.7304688,3,1.5854492,4.2001953,2.5649414-.2397461.0405273-.5649414.1254883-.9750977.2553711-.409668.1303711-.8198242.2700195-1.2299805.4199219-.409668.1499023-.7446289.3051758-1.0048828.4648438-1.5-1.1196289-3.324707-2.0297852-5.4750977-2.7299805-2.1494141-.699707-4.4248047-1.2397461-6.824707-1.6201172ZM330.9501953,319.8603516v-7.1103516h13.3496094v7.1103516h-2.5200195v-4.6503906h-8.3095703v4.6503906h-2.5200195ZM330.9501953,321.090332v-2.3999023h15.6899414v2.3999023h-15.6899414ZM332.5097656,311.550293v-16.0200195h2.7001953v16.0200195h-2.7001953Z" fill="#333"/>
      <path d="M320.2099609,289.3203125v-2.7001953h24.5102539c.7397461,0,1.324707.0800781,1.7548828.2402344.4296875.1601562.7543945.4599609.9750977.8999023.2397461.4399414.3945312.9951172.4648438,1.6650391.0698242.6704102.0947266,1.5151367.0751953,2.534668-.3603516.0405273-.8100586.140625-1.3500977.300293-.5400391.1601562-1.0004883.3300781-1.3803711.5097656.0205078-.6396484.0302734-1.234375.0302734-1.784668v-1.0952148c0-.199707-.0449219-.3447266-.1352539-.4350586-.0898438-.0898438-.2348633-.1347656-.4345703-.1347656h-24.5102539ZM321.0800781,281.4301758v-13.7700195h9.8398438v13.7700195h-9.8398438ZM323.0600586,278.8803711h1.9799805v-8.550293h-1.9799805v8.550293ZM326.0600586,293.1601562v-9.3598633h2.6401367v9.3598633h-2.6401367ZM326.9301758,278.8803711h2.0097656v-8.550293h-2.0097656v8.550293ZM332.5400391,283.4101562v-17.9101562h2.3701172v17.9101562h-2.3701172ZM333.2299805,279.0302734l.6000977-2.3100586c1.6201172.7402344,3.1347656,1.6948242,4.5449219,2.8647461,1.4101562,1.1704102,2.5952148,2.3955078,3.5551758,3.675293-.1601562.1201172-.3398438.2900391-.5400391.5097656-.199707.2207031-.3999023.4501953-.6000977.6899414-.199707.2402344-.3598633.4501953-.4799805.6303711-.8398438-1.2602539-1.875-2.4301758-3.1049805-3.5102539s-2.5546875-1.9296875-3.9750977-2.5498047ZM335.8701172,293.7299805c-.2797852-1.2397461-.6547852-2.7299805-1.125-4.4697266-.4697266-1.7402344-.9550781-3.4897461-1.4550781-5.25l2.5498047-.3598633c.4799805,1.6401367.965332,3.284668,1.4550781,4.9345703.4902344,1.6503906.9350586,3.1552734,1.3349609,4.5151367l-2.7597656.6298828ZM336.7402344,269.0400391v-2.5498047c.5395508.0200195.8901367.050293,1.0498047.0898438,2,.1201172,3.6298828.2451172,4.8901367.375,1.2597656.1303711,2.2299805.2851562,2.909668.465332.6796875.1796875,1.1699219.3999023,1.4702148.659668.2797852.2602539.4897461.5356445.6298828.8251953.1396484.2900391.2197266.6352539.2402344,1.0351562.0395508.3398438.0644531.7949219.074707,1.3647461.0097656.5698242-.0048828,1.175293-.0449219,1.8149414-.3598633.0200195-.7651367.0898438-1.2148438.2099609-.4501953.1201172-.8452148.2802734-1.1850586.4799805.0600586-.6000977.0996094-1.1396484.1201172-1.6196289.0195312-.4804688.0297852-.8300781.0297852-1.050293,0-.2197266-.0253906-.3999023-.0751953-.5400391-.0498047-.1396484-.1347656-.2700195-.2548828-.3901367-.1796875-.1796875-.5595703-.3344727-1.1396484-.4648438-.5800781-.1298828-1.4404297-.2548828-2.5800781-.375-1.1401367-.1201172-2.6499023-.2294922-4.5302734-.3300781h-.3896484ZM336.7402344,280.3803711v-12.5400391h2.25v12.5400391h-2.25ZM337.1601562,276.9902344l.6298828-2.25c1.9399414.8999023,3.7197266,2.0698242,5.3398438,3.5097656,1.6201172,1.4404297,2.9702148,2.9506836,4.050293,4.5302734-.1606445.1201172-.3452148.2900391-.5551758.5097656-.2099609.2207031-.4155273.4501953-.6152344.6899414-.199707.2402344-.3598633.4501953-.4799805.6303711-.9599609-1.6000977-2.1694336-3.0751953-3.6298828-4.425293-1.4594727-1.3500977-3.0395508-2.4150391-4.7397461-3.1948242ZM337.3100586,272.6401367l.5400391-2.3100586c2.0800781.6801758,4,1.5854492,5.7597656,2.715332,1.7602539,1.1298828,3.2299805,2.3652344,4.4101562,3.7045898-.1401367.1401367-.3051758.3300781-.4951172.5703125-.1904297.2397461-.3701172.4848633-.5400391.7348633-.1699219.2504883-.3149414.4750977-.4350586.6748047-1.0595703-1.3994141-2.3945312-2.625-4.0048828-3.6748047-1.609375-1.0498047-3.3549805-1.8549805-5.2348633-2.4150391Z" fill="#333"/>
      <path d="M320.1801758,251.0102539v-3.0898438c1.4199219,0,2.9448242.0351562,4.574707.1049805,1.6303711.0703125,3.3051758.2246094,5.0249023.4648438,1.7207031.2397461,3.4404297.6298828,5.1601562,1.1699219,1.7202148.5400391,3.3803711,1.2900391,4.9799805,2.25,1.6005859.9599609,3.0854492,2.1899414,4.4550781,3.6899414s2.5649414,3.3300781,3.5849609,5.4902344c-.3798828.2397461-.7949219.5600586-1.2451172.9599609-.449707.4003906-.824707.800293-1.125,1.199707-.9394531-2.0795898-2.034668-3.8344727-3.284668-5.2646484-1.25-1.4296875-2.6103516-2.5898438-4.0800781-3.4799805-1.4702148-.8896484-2.9951172-1.5751953-4.5751953-2.0551758-1.5795898-.4799805-3.159668-.8198242-4.7397461-1.0200195-1.5800781-.199707-3.1098633-.3198242-4.590332-.3598633-1.4794922-.0400391-2.8598633-.0600586-4.1396484-.0600586ZM328.5498047,262.6503906v-26.5200195h2.9404297v26.5200195h-2.9404297ZM329.7202148,247.7099609c2.3598633-.6396484,4.5595703-1.5043945,6.5996094-2.5947266,2.0400391-1.0898438,3.8251953-2.4301758,5.3549805-4.0200195,1.5302734-1.5898438,2.7353516-3.4350586,3.6152344-5.5351562.2001953.2402344.4599609.4951172.7797852.7651367s.6450195.5249023.9750977.7651367c.3300781.2397461.625.4399414.8852539.6000977-1.0405273,2.2197266-2.4150391,4.1547852-4.125,5.8046875s-3.6948242,3.0449219-5.9550781,4.1850586c-2.2597656,1.1401367-4.7402344,2.1000977-7.4399414,2.8798828l-.6899414-2.8500977Z" fill="#333"/>
      <path d="M320.1499023,216.2700195v-2.6396484h17.550293v2.6396484h-17.550293ZM320.1801758,229.6801758v-2.5800781h27.8100586v2.5800781h-27.8100586ZM321.9199219,222.300293v-14.7900391h8.1601562v14.7900391h-8.1601562ZM323.7202148,219.8701172h4.5595703v-9.8398438h-4.5595703v9.8398438ZM324.8901367,224.0400391v-3.2700195h.2700195v-11.6396484h-.2700195v-3.5400391h2.1298828v3.5400391h-.2998047v11.6396484h.2998047v3.2700195h-2.1298828ZM325.8798828,233.3100586v-9h2.6401367v9h-2.6401367ZM327.7099609,229.8603516l.8701172-1.4702148c1.0400391.2001953,2.1650391.4501953,3.375.75,1.2104492.300293,2.4296875.6254883,3.6601562.9750977,1.2299805.3500977,2.3999023.7250977,3.5097656,1.125,1.1098633.4003906,2.0952148.800293,2.9550781,1.2001953-.4599609.1601562-.9648438.3798828-1.5151367.659668-.5498047.2802734-1.0146484.5302734-1.3950195.75-.6601562-.3999023-1.4648438-.7998047-2.4150391-1.199707-.949707-.3999023-1.9599609-.7802734-3.0297852-1.1401367s-2.125-.6850586-3.1650391-.9750977c-1.0395508-.2895508-1.9897461-.5146484-2.8500977-.6748047ZM329.8701172,227.1904297c.2001953-.1801758.5546875-.4399414,1.0649414-.7802734.5097656-.3398438,1.0649414-.7050781,1.6650391-1.0947266.6000977-.3901367,1.1601562-.75,1.6796875-1.0800781.5205078-.3300781.8901367-.5551758,1.1103516-.675293l1.9799805,1.6499023c-.3999023.1606445-.8999023.3857422-1.5.675293-.6000977.2900391-1.2197266.5952148-1.8603516.9150391-.6396484.3198242-1.234375.6352539-1.784668.9448242-.5498047.3105469-.9946289.5654297-1.3349609.7651367l-1.0200195-1.3198242ZM331.3701172,222.9301758v-16.1699219h5.1298828v16.1699219h-5.1298828ZM333.1098633,220.4101562h1.6499023v-10.9799805h-1.6499023v10.9799805ZM343.1899414,222.5102539c-.8398438-.6000977-1.8447266-1.2099609-3.0151367-1.8300781-1.1699219-.6196289-2.2744141-1.1196289-3.3149414-1.5l.4501953-2.5800781c.6601562.2802734,1.3549805.5952148,2.0849609.9453125.7304688.3500977,1.4204102.7099609,2.0698242,1.0795898.6503906.3706055,1.2255859.715332,1.7250977,1.0351562v2.8500977ZM337.3701172,211.1401367v-2.5200195c1.2202148.2402344,2.324707.5751953,3.3149414,1.0048828.9897461.4306641,1.8798828,1.015625,2.6699219,1.7553711.7905273.7397461,1.4848633,1.6899414,2.0849609,2.8496094.6000977,1.1601562,1.1147461,2.5800781,1.5449219,4.2602539s.7749023,3.6801758,1.0351562,6c-.2998047.0600586-.6601562.1948242-1.0800781.4047852s-.7602539.4155273-1.0200195.6152344c-.2001953-2.1796875-.4697266-4.0449219-.8100586-5.5952148-.3398438-1.5493164-.7543945-2.8447266-1.2446289-3.8847656-.4902344-1.0395508-1.050293-1.8798828-1.6801758-2.5200195s-1.3447266-1.1445312-2.1450195-1.5151367c-.7998047-.3696289-1.6899414-.6547852-2.6699219-.8549805ZM338.5097656,224.4599609v-18.9897461h2.1904297v18.9897461h-2.1904297ZM343.1899414,222.5102539l-1.5898438-1.7402344c.2397461-1.2197266.5351562-2.5092773.8847656-3.8696289.3500977-1.3598633.7353516-2.7197266,1.1552734-4.0800781.4199219-1.3598633.8500977-2.6450195,1.2900391-3.8549805s.8696289-2.2749023,1.2900391-3.1953125l1.7998047,1.9204102c-.4003906.7998047-.8251953,1.784668-1.2749023,2.9545898-.4501953,1.1704102-.8955078,2.4301758-1.3349609,3.7802734-.4399414,1.3500977-.8549805,2.7202148-1.2451172,4.1098633-.3901367,1.3901367-.7148438,2.7148438-.9750977,3.9750977Z" fill="#333"/>
      <path d="M370.1000977,291.9448242c-2.0400391,0-3.9301758-.2548828-5.6699219-.7646484-1.7402344-.5102539-3.3300781-1.215332-4.7700195-2.1152344s-2.7402344-1.9199219-3.9003906-3.0600586l1.0800781-2.2797852c1.1401367,1.1000977,2.3852539,2.0600586,3.7353516,2.8798828,1.3496094.8203125,2.8100586,1.465332,4.3798828,1.9350586,1.5703125.4702148,3.2851562.7050781,5.1450195.7050781,1.840332,0,3.550293-.2348633,5.1298828-.7050781,1.5800781-.4697266,3.0405273-1.1147461,4.3798828-1.9350586,1.340332-.8198242,2.5898438-1.7797852,3.75-2.8798828l1.0800781,2.2797852c-1.1601562,1.1401367-2.4599609,2.1601562-3.8999023,3.0600586s-3.034668,1.6049805-4.7851562,2.1152344c-1.7495117.5097656-3.6347656.7646484-5.6547852.7646484Z" fill="#333"/>
      <path d="M381.5,276.0751953h-19.1699219v6.449707h-2.9399414v-16.4697266h2.9399414v6.4799805h19.1699219v3.5400391Z" fill="#333"/>
      <path d="M381.5,262.215332h-22.1098633v-7.2299805c0-1.5195312.2050781-2.8798828.6147461-4.0800781.4101562-1.199707,1.0800781-2.1494141,2.0102539-2.8496094.9296875-.7001953,2.1948242-1.050293,3.7949219-1.050293,1.5400391,0,2.8100586.3500977,3.8100586,1.050293s1.7451172,1.6499023,2.2348633,2.8496094c.4902344,1.2001953.7348633,2.5605469.7348633,4.0800781v3.75h8.9101562v3.4799805ZM369.7998047,258.7353516v-3.3300781c0-1.5996094-.3344727-2.824707-1.0048828-3.6748047-.6699219-.8496094-1.6650391-1.2749023-2.9848633-1.2749023-1.3398438,0-2.2749023.425293-2.8051758,1.2749023-.5297852.8500977-.7949219,2.0751953-.7949219,3.6748047v3.3300781h7.5898438ZM381.5,250.1552734l-9.8398438,5.4902344-2.0102539-2.5800781,11.8500977-6.8398438v3.9296875Z" fill="#333"/>
      <path d="M370.1000977,236.9555664c2.0200195,0,3.9052734.2548828,5.6547852.7646484,1.7504883.5102539,3.3452148,1.215332,4.7851562,2.1152344s2.7397461,1.9199219,3.8999023,3.0600586l-1.0800781,2.2797852c-1.1601562-1.0996094-2.409668-2.0595703-3.75-2.8798828-1.3393555-.8198242-2.7998047-1.4648438-4.3798828-1.9350586-1.5795898-.4697266-3.2895508-.7050781-5.1298828-.7050781-1.8598633,0-3.574707.2353516-5.1450195.7050781-1.5698242.4702148-3.0302734,1.1152344-4.3798828,1.9350586-1.3500977.8203125-2.5952148,1.7802734-3.7353516,2.8798828l-1.0800781-2.2797852c1.1601562-1.1401367,2.4604492-2.1601562,3.9003906-3.0600586s3.0297852-1.6049805,4.7700195-2.1152344c1.7397461-.5097656,3.6298828-.7646484,5.6699219-.7646484Z" fill="#333"/>
    </g>
    <g>
      <rect x="450.5001221" y="61.3920898" width="220" height="160" pointer-events="all" fill="#f5f5f5" stroke="#666" stroke-width="2"/>
      <text transform="translate(525.9998779 134.8755646)" fill="#333" font-family="SourceHanSansTC-Medium-B5pc-H, &apos;Source Han Sans TC&apos;" font-size="23" font-weight="500" isolation="isolate"><tspan x="0" y="0">籃球場</tspan><tspan x="-57.1538086" y="27.6000977">Basketball Court</tspan></text>
    </g>
    <g>
      <rect x="710.4998779" y="60.9934857" width="200" height="160" pointer-events="all" fill="#f5f5f5" stroke="#666" stroke-width="2"/>
      <text transform="translate(776.0002136 134.8756409)" fill="#333" font-family="SourceHanSansTC-Medium-B5pc-H, &apos;Source Han Sans TC&apos;" font-size="23" font-weight="500" isolation="isolate"><tspan x="0" y="0">網球場</tspan><tspan x="-38.1674805" y="27.6000977">Tennis Count</tspan></text>
    </g>
    <g>
      <rect x="451.5" y="260.9172131" width="460" height="200" pointer-events="all" fill="#f5f5f5" stroke="#666" stroke-width="2"/>
      <text transform="translate(647 354.6615601)" fill="#333" font-family="SourceHanSansTC-Medium-B5pc-H, &apos;Source Han Sans TC&apos;" font-size="23" font-weight="500" isolation="isolate"><tspan x="0" y="0">運動場</tspan><tspan x="-37.6845703" y="27.6000977">Athletic Field</tspan></text>
    </g>
    <rect x="950.5" y="220.5" width="80" height="240" pointer-events="all" fill="#f5f5f5" stroke="#666" stroke-width="2"/>
    <text transform="translate(985.6904907 409.6904755) rotate(-90)" fill="#333" font-family="SourceHanSansTC-Medium-B5pc-H, &apos;Source Han Sans TC&apos;" font-size="23" font-weight="500" isolation="isolate"><tspan x="0" y="0">第一教學大樓</tspan><tspan x="32.418457" y="27.5996094">（T1）</tspan></text>
    <rect x="950.5" y="60.5" width="400" height="80" pointer-events="all" fill="#f5f5f5" stroke="#666" stroke-width="2"/>
    <text transform="translate(1087.1015625 96.9053497)" fill="#333" font-family="SourceHanSansTC-Medium-B5pc-H, &apos;Source Han Sans TC&apos;" font-size="23" font-weight="500" isolation="isolate"><tspan x="0" y="0">第四教學大樓</tspan><tspan x="32.4189453" y="27.6000977">（T4）</tspan></text>
    <rect x="1070.5" y="300.5" width="280" height="160" rx="10" ry="10" pointer-events="all" fill="#ffe6cc" stroke="#d79b00" stroke-width="2"/>
    <text transform="translate(1131.0978088 379.3650818)" fill="#333" font-family="SourceHanSansTC-Medium-B5pc-H, &apos;Source Han Sans TC&apos;" font-size="25" font-weight="500" isolation="isolate"><tspan x="0" y="0">綜合研究大樓</tspan><tspan x="33.4628906" y="30">（RB）</tspan></text>
    <circle cx="1130.5" cy="220.5" r="60" pointer-events="all" fill="#ffe6cc" stroke="#d79b00" stroke-width="2"/>
    <text transform="translate(1080.4179688 226)" fill="#333" font-family="SourceHanSansTC-Medium-B5pc-H, &apos;Source Han Sans TC&apos;" font-size="23" font-weight="500" isolation="isolate"><tspan x="0" y="0">視聽室AU</tspan></text>
    <path d="M758.0793675,500.5h-467.5793675" pointer-events="stroke" fill="none" stroke="#000" stroke-dasharray="6 6" stroke-miterlimit="10" stroke-width="2"/>
    <path d="M1370.5,500.5h-466.134916" pointer-events="stroke" fill="none" stroke="#000" stroke-dasharray="6 6" stroke-miterlimit="10" stroke-width="2"/>
    <g isolation="isolate">
      <path d="M780.3574219,489.53125h19.4580078v20.4238281h-2.1396484v-18.4462891h-15.2490234v18.4462891h-2.0693359v-20.4238281ZM781.6679688,507.0566406h17.1582031v1.9785156h-17.1582031v-1.9785156ZM783.6230469,495.234375h12.9492188v1.2197266h-12.9492188v-1.2197266ZM783.8300781,501.4677734h12.6269531v1.1728516h-12.6269531v-1.1728516ZM785.1640625,501.8359375l1.6328125.1835938c-.1230469.5683594-.2685547,1.1582031-.4365234,1.7714844-.1689453.6132812-.3222656,1.1425781-.4599609,1.5869141h-1.7021484c.1835938-.5058594.3564453-1.0771484.5175781-1.7138672.1611328-.6357422.3105469-1.2451172.4482422-1.828125ZM784.9570312,492.9121094h9.6367188v3.0585938h-1.8164062v-1.9082031h-7.8203125v-1.1503906ZM785.0722656,497.2128906h10.0507812v3.3808594h-10.0507812v-3.3808594ZM785.3710938,504.1367188h11.0400391v1.2412109h-11.0400391v-1.2412109ZM788.1767578,491.6240234l1.8408203.2294922c-.1845703.6601562-.3837891,1.3535156-.5986328,2.0820312s-.4140625,1.3535156-.5976562,1.875h-1.9316406c.2138672-.5683594.4443359-1.2382812.6894531-2.0136719.2451172-.7734375.4443359-1.4980469.5976562-2.1728516ZM786.9121094,498.2939453v1.2646484h6.2792969v-1.2646484h-6.2792969ZM790.0175781,500.2949219h1.9550781v6.4628906h-1.9550781v-6.4628906Z" fill="#333"/>
      <path d="M803.5185547,500.8242188h1.8398438v1.4716797c0,.4912109-.0195312,1.0507812-.0576172,1.6787109-.0380859.6289062-.1035156,1.2929688-.1953125,1.9902344-.0927734.6972656-.234375,1.3876953-.4257812,2.0703125-.1923828.6816406-.4414062,1.3144531-.7470703,1.8964844-.1230469-.0917969-.2880859-.1914062-.4951172-.2988281s-.4140625-.2109375-.6210938-.3105469-.3945312-.171875-.5634766-.21875c.3681641-.7207031.640625-1.4980469.8164062-2.3339844.1767578-.8359375.2949219-1.65625.3564453-2.4609375s.0927734-1.4912109.0927734-2.0585938v-1.4257812ZM802.4140625,500.0644531h5.8652344v1.9101562h-5.8652344v-1.9101562ZM803.3115234,489.7382812h1.8623047v5.4042969h3.2666016v1.9550781h-5.1289062v-7.359375ZM807.1523438,488.5878906h1.9550781v21.34375h-1.9550781v-21.34375ZM812.2578125,492.4746094l1.6337891.3222656c-.2617188.9199219-.6445312,1.7792969-1.1503906,2.5761719s-1.0664062,1.4648438-1.6787109,2.0009766c-.1533203-.1376953-.3759766-.3066406-.6669922-.5058594-.2919922-.1992188-.5371094-.3525391-.7363281-.4599609.6132812-.4746094,1.1425781-1.0546875,1.5869141-1.7363281.4443359-.6826172.7822266-1.4150391,1.0117188-2.1972656ZM809.6591797,497.4882812h14.0986328v1.703125h-14.0986328v-1.703125ZM810.1884766,490.6347656h12.8339844v1.6796875h-12.8339844v-1.6796875ZM810.7861328,500.4335938h12.0517578v9.4296875h-1.8857422v-8.0039062h-8.3486328v8.0498047h-1.8173828v-9.4755859ZM811.9130859,495.0507812l1.0810547-.9199219c.4140625.2910156.8359375.6328125,1.2646484,1.0234375.4296875.390625.7597656.7402344.9892578,1.046875l-1.1035156,1.0117188c-.2304688-.3066406-.5566406-.6630859-.9775391-1.0693359-.421875-.40625-.8398438-.7705078-1.2539062-1.0927734ZM811.9130859,507.6318359h9.7060547v1.4716797h-9.7060547v-1.4716797ZM814.0292969,502.8476562h5.4052734v3.7949219h-5.4052734v-3.7949219ZM815.4785156,504.0439453v1.4267578h2.4609375v-1.4267578h-2.4609375ZM815.546875,488.5878906h2.0244141v9.8671875h-2.0244141v-9.8671875ZM820.1474609,492.4746094l1.6552734.2763672c-.2451172.9658203-.6132812,1.8398438-1.1035156,2.6220703-.4912109.78125-1.0664062,1.4414062-1.7246094,1.9785156-.1542969-.1386719-.3720703-.3105469-.65625-.5175781-.2832031-.2070312-.5322266-.3652344-.7470703-.4726562.6435547-.4589844,1.1845703-1.0234375,1.6210938-1.6894531.4375-.6679688.7548828-1.3994141.9550781-2.1972656ZM819.9404297,495.0048828l1.1035156-.9199219c.4443359.3076172.9042969.6669922,1.3798828,1.0810547s.84375.7822266,1.1044922,1.1035156l-1.1269531,1.0351562c-.2607422-.3369141-.625-.7246094-1.0927734-1.1611328s-.9238281-.8164062-1.3681641-1.1386719Z" fill="#333"/>
      <path d="M829.5771484,499.2597656c0-1.5644531.1953125-3.0126953.5869141-4.3466797.390625-1.3339844.9316406-2.5537109,1.6210938-3.6572266.6904297-1.1035156,1.4716797-2.1005859,2.3457031-2.9902344l1.7480469.828125c-.8427734.8740234-1.5791016,1.828125-2.2080078,2.8632812s-1.1230469,2.1542969-1.4833984,3.3583984-.5400391,2.5185547-.5400391,3.9443359c0,1.4111328.1796875,2.7226562.5400391,3.9335938s.8544922,2.3300781,1.4833984,3.3574219,1.3652344,1.9863281,2.2080078,2.875l-1.7480469.828125c-.8740234-.8886719-1.6552734-1.8857422-2.3457031-2.9902344-.6894531-1.1035156-1.2304688-2.3261719-1.6210938-3.6679688-.3916016-1.3417969-.5869141-2.7871094-.5869141-4.3359375Z" fill="#333"/>
      <path d="M840.0419922,508l-3.4267578-16.9511719h2.7373047l1.5869141,8.8085938c.1523438.9052734.3066406,1.8105469.4599609,2.7148438s.3066406,1.8164062.4599609,2.7363281h.0917969c.1835938-.9199219.3720703-1.8320312.5634766-2.7363281s.3867188-1.8095703.5869141-2.7148438l2.1611328-8.8085938h2.3691406l2.1855469,8.8085938c.1992188.890625.390625,1.7910156.5751953,2.703125.1835938.9121094.375,1.828125.5742188,2.7480469h.1152344c.1533203-.9199219.2988281-1.8320312.4375-2.7363281.1376953-.9042969.2753906-1.8095703.4140625-2.7148438l1.609375-8.8085938h2.5527344l-3.3349609,16.9511719h-3.2880859l-2.2773438-9.4072266c-.1376953-.6748047-.2724609-1.3291016-.4023438-1.9658203-.1308594-.6367188-.2568359-1.2773438-.3798828-1.9208984h-.0917969c-.1230469.6435547-.2529297,1.2841797-.390625,1.9208984-.1386719.6367188-.2763672,1.2910156-.4140625,1.9658203l-2.2314453,9.4072266h-3.2431641Z" fill="#333"/>
      <path d="M861.15625,508.3222656c-.7207031,0-1.3613281-.1542969-1.9208984-.4609375-.5595703-.3056641-1-.7353516-1.3222656-1.2871094-.3222656-.5527344-.4824219-1.1962891-.4824219-1.9316406,0-1.3652344.6015625-2.4189453,1.8046875-3.1630859,1.2041016-.7431641,3.1240234-1.2607422,5.7617188-1.5527344-.015625-.4902344-.0917969-.9423828-.2294922-1.3564453-.1386719-.4140625-.3798828-.7480469-.7246094-1.0009766s-.8320312-.3798828-1.4609375-.3798828c-.6591797,0-1.2958984.1308594-1.9091797.3916016s-1.1953125.5595703-1.7480469.8974609l-.9882812-1.7949219c.4443359-.2753906.9345703-.5400391,1.4716797-.7929688s1.1113281-.4599609,1.7246094-.6210938,1.25-.2421875,1.9091797-.2421875c1.0585938,0,1.9248047.2109375,2.5996094.6328125.6738281.421875,1.1767578,1.03125,1.5058594,1.828125.3300781.7988281.4951172,1.7636719.4951172,2.8984375v7.6132812h-2.1621094l-.2070312-1.4492188h-.0917969c-.5673828.4912109-1.1884766.9082031-1.8632812,1.2539062-.6748047.3447266-1.3955078.5175781-2.1621094.5175781ZM861.9609375,506.2060547c.5527344,0,1.0654297-.1259766,1.5410156-.3798828.4755859-.2519531.9736328-.6240234,1.4951172-1.1152344v-3.0820312c-1.2421875.1386719-2.2304688.3417969-2.9667969.609375-.7363281.2685547-1.2617188.5830078-1.5751953.9433594-.3144531.3603516-.4716797.7783203-.4716797,1.2539062,0,.6289062.1914062,1.0800781.5751953,1.3564453.3828125.2763672.8505859.4140625,1.4023438.4140625Z" fill="#333"/>
      <path d="M874.0126953,508.3222656c-.6435547,0-1.1572266-.1347656-1.5410156-.4023438-.3828125-.2685547-.6591797-.6523438-.828125-1.1503906s-.2529297-1.0839844-.2529297-1.7597656v-15.3408203h2.6455078v15.4794922c0,.3525391.0644531.6015625.1953125.7470703.1298828.1455078.2724609.2177734.4257812.2177734.0605469,0,.1220703-.0029297.1835938-.0107422s.1533203-.0185547.2763672-.0341797l.3212891,2c-.1533203.0615234-.3447266.1191406-.5742188.1738281-.2304688.0527344-.5146484.0800781-.8515625.0800781Z" fill="#333"/>
      <path d="M880.8671875,508.3222656c-.6445312,0-1.1582031-.1347656-1.5410156-.4023438-.3837891-.2685547-.6601562-.6523438-.828125-1.1503906-.1689453-.4980469-.2529297-1.0839844-.2529297-1.7597656v-15.3408203h2.6445312v15.4794922c0,.3525391.0654297.6015625.1953125.7470703.1308594.1455078.2724609.2177734.4257812.2177734.0615234,0,.1230469-.0029297.1845703-.0107422.0605469-.0078125.1523438-.0185547.2753906-.0341797l.3222656,2c-.1533203.0615234-.3447266.1191406-.5751953.1738281-.2294922.0527344-.5136719.0800781-.8505859.0800781Z" fill="#333"/>
      <path d="M889.6064453,499.2597656c0,1.5488281-.1953125,2.9941406-.5859375,4.3359375-.3916016,1.3417969-.9316406,2.5644531-1.6220703,3.6679688-.6894531,1.1044922-1.4716797,2.1015625-2.3457031,2.9902344l-1.7480469-.828125c.8427734-.8886719,1.5791016-1.8476562,2.2080078-2.875s1.1230469-2.1464844,1.4833984-3.3574219.5410156-2.5224609.5410156-3.9335938c0-1.4257812-.1806641-2.7402344-.5410156-3.9443359s-.8544922-2.3232422-1.4833984-3.3583984-1.3652344-1.9892578-2.2080078-2.8632812l1.7480469-.828125c.8740234.8896484,1.65625,1.8867188,2.3457031,2.9902344.6904297,1.1035156,1.2304688,2.3232422,1.6220703,3.6572266.390625,1.3339844.5859375,2.7822266.5859375,4.3466797Z" fill="#333"/>
    </g>
    <circle cx="460.5" cy="550.5" r="30" pointer-events="all" fill="#f8cecc" stroke="#b85450" stroke-width="2"/>
    <text transform="translate(441.4946289 556)" fill="#b85450" font-family="SourceHanSansTC-Medium-B5pc-H, &apos;Source Han Sans TC&apos;" font-size="20" font-weight="500" isolation="isolate"><tspan x="0" y="0">BUS</tspan></text>
    <path d="M410.5,560.5c-66.6666565,13.333313-106.6666565,3.333313-120-30-13.3333435-33.3333435-7.4133301-119.1566467,17.7600098-257.4700012" pointer-events="stroke" fill="none" stroke="#9673a6" stroke-miterlimit="10" stroke-width="2"/>
    <path d="M310.1400146,262.7000122l4.3799744,15.0299988-6.2599792-4.7000122-7.5100098,2.1900024,9.3900146-12.519989Z" pointer-events="all" fill="#9673a6" stroke="#9673a6" stroke-miterlimit="10" stroke-width="2"/>
    <path d="M406.1300049,115.2900009c29.5799866-9.8600006,34.3699951-28.1233368,14.3699951-54.7900009-20-26.6666679,73.3333435-40,280-40s328.7667236,81.3166733,366.3000488,243.9500122" pointer-events="stroke" fill="none" stroke="#9673a6" stroke-miterlimit="10" stroke-width="4"/>
    <path d="M394.7399902,119.0899963l12.6500244-12.6499939-1.2600098,8.8499985,6.3200073,6.3300018-17.710022-2.5300064Z" pointer-events="all" fill="#9673a6" stroke="#9673a6" stroke-miterlimit="10" stroke-width="4"/>
    <path d="M1069.4899902,276.1400146l-11.3900146-13.7900085,8.7000732,2.1000061,6.8898926-5.7000122-4.1999512,17.3900146Z" pointer-events="all" fill="#9673a6" stroke="#9673a6" stroke-miterlimit="10" stroke-width="4"/>
    <rect x="510.5" y="520.5" width="310" height="60" pointer-events="all" fill="none"/>
    <text transform="translate(514.2998047 542.8964844)" fill="#b85450" font-family="SourceHanSansTC-Medium-B5pc-H, &apos;Source Han Sans TC&apos;" font-size="20" font-weight="500" isolation="isolate"><tspan x="0" y="0">臺大癌醫(基隆路)</tspan><tspan x="0" y="24">NTU Cancer Center (Keelung Rd)</tspan></text>
    <circle cx="350.5" cy="525.5" r="5" pointer-events="all" fill="#d5e8d4" stroke="#82b366" stroke-width="2"/>
    <path d="M350.5,530.5v16.6699829M350.5,533.8300171h-10M350.5,533.8300171h10M350.5,547.1699829l-10,13.3300171M350.5,547.1699829l10,13.3300171" pointer-events="all" fill="none" stroke="#82b366" stroke-miterlimit="10" stroke-width="2"/>
    <circle cx="990.5" cy="165.5" r="5" pointer-events="all" fill="#d5e8d4" stroke="#82b366" stroke-width="2"/>
    <path d="M990.5,170.5v16.6699982M990.5,173.8300018h-10M990.5,173.8300018h10M990.5,187.1699982l-10,13.3300018M990.5,187.1699982l10,13.3300018" pointer-events="all" fill="none" stroke="#82b366" stroke-miterlimit="10" stroke-width="2"/>
    <rect x="290.5" y="20.5" width="40" height="40" rx="6" ry="6" pointer-events="all" fill="#dae8fc" stroke="#6c8ebf" stroke-width="2"/>
    <text transform="translate(301.9960938 48)" font-family="SourceHanSansTC-Bold-B5pc-H, &apos;Source Han Sans TC&apos;" font-size="24" font-weight="700" isolation="isolate"><tspan x="0" y="0">P</tspan></text>
    <rect x="9.3028564" y="320.5" width="160" height="140" rx="21" ry="21" pointer-events="all" fill="#f5f5f5" stroke="#666" stroke-width="2"/>
    <text transform="translate(29.3031311 378.0316925)" fill="#333" font-family="SourceHanSansTC-Medium-B5pc-H, &apos;Source Han Sans TC&apos;" font-size="20" font-weight="500" isolation="isolate"><tspan x="0" y="0">臺大動物醫院</tspan><tspan x="-12.7392578" y="24">NTU Veterinary</tspan><tspan x="19.7705078" y="48">Hospital</tspan></text>
    <rect x="9.3249512" y="140.5" width="160" height="140" rx="21" ry="21" pointer-events="all" fill="#f5f5f5" stroke="#666" stroke-width="2"/>
    <text transform="translate(20.3250427 196.3808594)" fill="#333" font-family="SourceHanSansTC-Medium-B5pc-H, &apos;Source Han Sans TC&apos;" font-size="23" font-weight="500" isolation="isolate"><tspan x="0" y="0">臺大癌症醫院</tspan><tspan x="4.140625" y="27.6000977">NTU Cancer</tspan><tspan x="32.1196289" y="55.2001953">Center</tspan></text>
    <path d="M106.5,20.5l20,40" pointer-events="stroke" fill="none" stroke="#6c8ebf" stroke-miterlimit="10" stroke-width="2"/>
    <path d="M150.5,24.5l-68.6100006,34.2999992" pointer-events="stroke" fill="none" stroke="#6c8ebf" stroke-miterlimit="10" stroke-width="2"/>
    <path d="M72.5,63.5l9.3899994-12.5200005v7.8199997l6.2600021,4.7000008h-15.6500015Z" pointer-events="all" fill="#6c8ebf" stroke="#6c8ebf" stroke-miterlimit="10" stroke-width="2"/>
    <text transform="translate(51.3339844 82)" font-family="SourceHanSansTC-Medium-B5pc-H, &apos;Source Han Sans TC&apos;" font-size="24" font-weight="500" isolation="isolate"><tspan x="0" y="0">N</tspan></text>
    <rect x="10.5" y="490.5" width="160" height="50" rx="8" ry="8" pointer-events="all" fill="#fff2cc" stroke="#d6b656" stroke-width="2"/>
    <text transform="translate(41.2321167 522.3217773)" fill="#333" font-family="SourceHanSansTC-Medium-B5pc-H, &apos;Source Han Sans TC&apos;" font-size="23" font-weight="500" isolation="isolate"><tspan x="0" y="0">Ubike 2.0</tspan></text>
    <rect x="10.5" y="600.5" width="1360" height="80" pointer-events="all" fill="#f5f5f5" stroke="#666" stroke-dasharray="6 6" stroke-width="2"/>
    <text transform="translate(635 635.1522827)" fill="#333" font-family="SourceHanSansTC-Medium-B5pc-H, &apos;Source Han Sans TC&apos;" font-size="23" font-weight="500" isolation="isolate"><tspan x="0" y="0">基隆路四段</tspan><tspan x="-75.3115234" y="27.5996094">Section 4, Keelung Road</tspan></text>
  </g>
</svg>